<svg id="svg" version="1.1" width="400" height="78.44397463002115" viewBox="0 0 400 78.44397463002115" xmlns="http://www.w3.org/2000/svg" xmlns:xlink="http://www.w3.org/1999/xlink" ><g id="svgg"><path id="path0" d="M341.167 9.297 L 341.167 18.594 337.792 18.589 C 329.902 18.576,323.779 21.743,319.711 27.941 C 318.968 29.074,317.692 31.638,317.485 32.417 C 317.411 32.692,317.200 33.367,317.014 33.917 C 315.582 38.157,315.668 46.810,317.188 51.500 C 318.554 55.714,320.703 58.894,323.336 60.597 C 324.612 61.421,324.735 61.495,325.250 61.739 C 329.683 63.844,337.811 63.653,339.680 61.400 C 339.787 61.272,339.959 61.166,340.062 61.166 C 340.680 61.163,342.793 58.630,343.724 56.775 C 344.427 55.374,344.667 55.160,344.667 55.933 C 344.667 57.114,346.266 60.507,347.744 62.460 C 348.610 63.605,348.379 63.634,354.583 61.598 C 355.225 61.388,356.313 61.043,357.000 60.831 C 359.800 59.971,360.051 59.809,359.375 59.299 C 359.060 59.060,358.924 58.859,358.214 57.578 C 357.134 55.628,356.452 53.702,355.854 50.917 C 355.108 47.443,355.103 47.287,355.044 24.225 L 354.988 2.201 354.369 2.128 C 354.029 2.088,353.000 1.927,352.083 1.770 C 351.167 1.614,349.554 1.342,348.500 1.165 C 347.446 0.989,345.496 0.654,344.167 0.421 C 342.837 0.188,341.619 -0.002,341.458 -0.002 C 341.184 -0.000,341.167 0.554,341.167 9.297 M199.539 9.375 L 199.583 14.750 206.458 14.794 L 213.333 14.837 213.333 38.752 L 213.333 62.667 220.583 62.667 L 227.833 62.667 227.833 38.752 L 227.833 14.837 234.542 14.794 L 241.250 14.750 241.615 12.833 C 241.816 11.779,242.140 9.979,242.336 8.833 C 242.531 7.688,242.798 6.186,242.929 5.496 C 243.060 4.807,243.167 4.188,243.167 4.121 C 243.167 4.055,233.341 4.000,221.331 4.000 L 199.495 4.000 199.539 9.375 M381.126 18.508 C 374.495 19.280,368.239 23.786,365.403 29.833 C 361.345 38.486,362.304 52.135,367.353 57.583 C 370.122 60.571,372.521 61.945,376.706 62.940 C 381.855 64.163,391.552 63.138,396.796 60.816 C 397.188 60.642,397.602 60.500,397.715 60.500 C 397.829 60.500,398.201 60.350,398.544 60.167 C 398.886 59.983,399.274 59.833,399.406 59.833 C 399.817 59.833,399.872 59.516,399.603 58.701 C 399.309 57.810,398.676 55.678,398.158 53.833 C 397.126 50.162,397.217 50.251,395.250 50.980 C 392.213 52.104,387.154 53.167,384.837 53.167 C 381.589 53.167,379.324 51.620,378.240 48.664 L 377.898 47.728 380.407 47.344 C 389.265 45.988,395.406 42.694,398.372 37.708 C 399.680 35.509,400.000 34.243,400.000 31.269 C 400.000 21.792,393.083 17.115,381.126 18.508 M246.000 18.905 C 244.805 19.331,243.846 19.640,240.500 20.675 C 237.948 21.464,236.333 22.018,236.333 22.102 C 236.333 22.134,236.617 22.535,236.964 22.994 C 237.878 24.201,238.718 25.933,239.393 28.000 C 240.842 32.438,241.000 34.593,241.000 49.894 L 241.000 62.667 248.000 62.667 L 255.000 62.667 255.000 50.779 L 255.000 38.892 255.396 37.571 C 256.788 32.933,260.809 30.667,264.582 32.395 C 265.115 32.639,265.563 32.818,265.579 32.794 C 265.667 32.654,267.441 26.266,267.998 24.083 C 268.115 23.625,268.389 22.613,268.606 21.833 C 268.824 21.054,269.045 20.192,269.098 19.917 L 269.195 19.417 267.476 19.000 C 261.093 17.453,255.445 19.514,252.251 24.556 C 251.806 25.258,251.418 25.807,251.387 25.776 C 251.357 25.746,251.150 25.202,250.929 24.569 C 250.245 22.617,249.887 21.925,248.369 19.625 C 247.537 18.365,247.525 18.361,246.000 18.905 M287.250 18.753 C 283.817 19.411,281.213 20.329,279.456 21.503 C 278.909 21.868,278.429 22.167,278.389 22.167 C 277.842 22.167,273.000 27.027,273.000 27.576 C 273.000 27.638,272.826 27.928,272.612 28.219 C 268.754 33.498,267.833 44.571,270.592 52.500 C 271.115 54.004,272.232 56.285,272.677 56.761 C 272.855 56.950,273.000 57.179,273.000 57.270 C 273.000 57.531,275.999 60.500,276.262 60.500 C 276.393 60.500,276.500 60.569,276.500 60.654 C 276.500 60.933,279.559 62.319,280.917 62.656 C 287.618 64.315,293.131 62.674,296.016 58.162 C 296.866 56.832,297.333 55.913,297.333 55.569 C 297.333 55.009,297.643 55.559,297.905 56.583 C 298.435 58.660,299.523 60.802,300.988 62.651 C 301.609 63.435,301.895 63.483,303.202 63.023 C 303.687 62.853,305.208 62.359,306.583 61.925 C 307.958 61.492,309.496 61.004,310.000 60.841 C 310.504 60.678,311.348 60.410,311.875 60.245 C 313.003 59.893,312.970 59.982,312.292 59.111 C 311.662 58.304,311.446 57.942,310.788 56.592 C 309.710 54.383,309.177 52.511,308.553 48.750 L 308.111 46.083 308.044 33.586 C 307.995 24.326,307.928 21.058,307.784 20.970 C 307.677 20.904,307.289 20.805,306.920 20.751 C 306.552 20.697,305.612 20.513,304.833 20.343 C 297.579 18.753,290.562 18.119,287.250 18.753 M384.915 28.856 C 386.506 29.946,386.723 33.303,385.302 34.829 C 385.136 35.007,385.000 35.201,385.000 35.259 C 385.000 35.411,383.278 36.994,383.109 36.997 C 383.032 36.999,382.760 37.148,382.506 37.329 C 381.846 37.799,379.614 38.449,378.271 38.562 L 377.125 38.658 377.239 37.621 C 377.741 33.057,378.848 30.434,380.894 28.961 C 381.913 28.227,383.921 28.175,384.915 28.856 M292.750 29.081 C 293.483 29.213,294.102 29.324,294.125 29.328 C 294.632 29.398,294.008 43.476,293.399 45.716 C 293.179 46.522,293.000 47.251,293.000 47.336 C 293.000 48.841,290.169 52.475,288.728 52.819 C 285.208 53.661,283.748 50.388,283.752 41.667 C 283.757 31.368,286.234 27.903,292.750 29.081 M339.642 29.067 C 341.328 29.389,341.204 28.815,341.123 35.939 C 341.003 46.393,339.370 51.575,335.825 52.753 C 332.508 53.855,330.997 51.034,330.727 43.234 C 330.338 32.036,333.004 27.801,339.642 29.067 M0.000 72.500 L 0.000 78.333 101.167 78.333 L 202.333 78.333 202.333 72.500 L 202.333 66.667 101.167 66.667 L 0.000 66.667 0.000 72.500 " stroke="none" fill="#e41b04" fill-rule="evenodd"></path><path id="path1" d="M71.917 0.232 C 68.079 1.531,66.167 4.091,66.167 7.927 C 66.167 10.407,67.541 13.500,68.643 13.500 C 68.725 13.500,68.882 13.608,68.992 13.740 C 70.178 15.169,75.484 15.068,78.000 13.569 C 82.963 10.611,82.877 2.707,77.858 0.574 C 76.529 0.009,73.149 -0.186,71.917 0.232 M149.083 0.347 C 147.983 0.521,146.354 0.737,145.463 0.827 C 144.572 0.918,143.147 1.105,142.296 1.244 C 141.446 1.383,140.454 1.516,140.092 1.540 L 139.434 1.583 139.040 3.500 C 138.604 5.622,138.238 7.461,137.581 10.833 C 137.163 12.974,136.929 14.197,136.152 18.291 C 135.965 19.277,135.630 20.918,135.406 21.937 C 135.183 22.957,135.000 23.931,135.000 24.102 C 135.000 24.395,134.659 26.137,134.041 29.000 C 133.893 29.688,133.723 30.625,133.664 31.083 C 133.605 31.542,133.396 32.667,133.199 33.583 C 133.003 34.500,132.683 36.075,132.488 37.083 C 131.804 40.630,131.518 42.104,131.082 44.333 C 130.840 45.571,130.492 47.371,130.309 48.333 C 130.126 49.296,129.823 50.814,129.637 51.708 C 127.566 61.616,135.985 65.883,148.667 61.353 L 149.583 61.026 149.628 56.263 C 149.652 53.643,149.626 51.500,149.570 51.500 C 149.514 51.500,149.081 51.603,148.609 51.728 C 147.539 52.012,145.590 52.452,144.889 52.566 C 143.418 52.807,143.210 51.676,143.997 47.713 C 144.193 46.725,144.496 45.167,144.669 44.250 C 144.842 43.333,145.180 41.571,145.421 40.333 C 145.661 39.096,146.000 37.333,146.173 36.417 C 146.946 32.322,147.177 31.111,147.587 29.000 C 147.826 27.762,148.168 25.981,148.345 25.042 C 148.522 24.102,148.812 22.565,148.989 21.625 C 149.166 20.685,149.507 18.904,149.747 17.667 C 149.987 16.429,150.329 14.648,150.508 13.708 C 150.687 12.769,150.980 11.231,151.159 10.292 C 151.338 9.352,151.648 7.683,151.847 6.583 C 152.046 5.483,152.387 3.776,152.604 2.789 C 153.300 -0.369,153.358 -0.329,149.083 0.347 M29.417 3.751 C 29.233 3.782,27.921 3.933,26.500 4.086 C 25.079 4.239,23.182 4.511,22.285 4.691 C 20.654 5.018,20.653 5.018,17.001 4.667 C 12.436 4.228,11.600 4.253,11.541 4.833 C 11.518 5.063,11.349 6.019,11.166 6.958 C 10.983 7.898,10.680 9.473,10.493 10.458 C 10.306 11.444,9.963 13.225,9.731 14.417 C 9.499 15.608,9.163 17.352,8.984 18.291 C 8.166 22.592,7.950 23.713,7.579 25.583 C 7.360 26.683,7.028 28.390,6.841 29.375 C 6.122 33.152,5.802 34.817,5.422 36.750 C 4.951 39.140,4.439 41.792,3.998 44.126 C 3.569 46.392,3.114 48.758,2.580 51.500 C 2.339 52.737,1.993 54.538,1.811 55.500 C 1.629 56.462,1.367 57.786,1.230 58.442 C 1.092 59.097,0.914 60.072,0.834 60.609 C 0.755 61.145,0.640 61.815,0.579 62.099 L 0.469 62.614 6.609 62.728 C 22.905 63.031,27.849 62.667,32.564 60.819 C 33.012 60.644,33.478 60.500,33.601 60.500 C 33.823 60.500,34.267 60.312,36.333 59.339 C 40.345 57.452,44.824 53.715,46.750 50.648 C 46.842 50.503,47.127 50.067,47.384 49.681 C 49.595 46.357,51.898 40.218,52.492 36.066 C 52.583 35.434,52.738 34.504,52.838 34.000 C 53.118 32.581,53.493 26.869,53.493 24.000 C 53.495 12.045,49.120 6.098,38.833 4.071 C 37.531 3.815,30.444 3.574,29.417 3.751 M174.266 8.208 C 174.209 8.323,174.016 8.642,173.836 8.917 C 173.656 9.192,173.356 9.679,173.169 10.000 C 172.982 10.321,172.457 11.146,172.003 11.833 C 171.549 12.521,171.055 13.324,170.907 13.617 C 170.758 13.911,170.530 14.239,170.401 14.346 C 170.272 14.453,170.167 14.601,170.167 14.675 C 170.167 14.749,169.867 15.261,169.500 15.813 C 169.133 16.365,168.833 16.849,168.833 16.888 C 168.833 16.926,168.365 17.673,167.792 18.547 C 166.699 20.213,164.702 23.357,164.417 23.858 C 164.233 24.180,163.010 26.116,162.294 27.216 C 162.044 27.601,161.787 28.029,161.723 28.167 C 161.660 28.304,161.445 28.642,161.245 28.917 C 161.046 29.192,160.834 29.529,160.775 29.667 C 160.716 29.804,160.293 30.479,159.836 31.167 C 159.379 31.854,158.852 32.679,158.665 33.000 C 158.478 33.321,158.046 34.012,157.704 34.536 C 156.897 35.775,154.798 39.091,154.583 39.466 C 154.492 39.626,154.248 39.992,154.042 40.279 C 153.835 40.566,153.667 40.849,153.667 40.907 C 153.667 40.966,153.515 41.219,153.330 41.469 C 153.013 41.897,152.996 42.135,153.038 45.421 L 153.083 48.917 163.792 48.960 L 174.500 49.002 174.502 49.376 C 174.503 49.741,174.152 51.643,173.494 54.835 C 173.314 55.707,173.167 56.578,173.167 56.771 C 173.167 56.964,172.986 57.938,172.766 58.936 C 172.546 59.934,172.315 61.181,172.254 61.708 L 172.143 62.667 179.030 62.667 L 185.917 62.666 186.280 60.958 C 186.481 60.019,186.842 58.237,187.083 57.000 C 187.325 55.762,187.663 54.038,187.835 53.167 C 188.008 52.296,188.195 51.283,188.251 50.917 C 188.308 50.550,188.427 49.969,188.517 49.625 L 188.680 49.000 191.745 49.000 C 195.198 49.000,194.838 49.159,195.147 47.500 C 195.534 45.424,196.055 42.806,196.432 41.048 C 196.653 40.020,196.833 38.951,196.833 38.673 L 196.833 38.167 193.831 38.167 L 190.829 38.167 190.925 37.458 C 190.977 37.069,191.161 36.037,191.334 35.167 C 191.847 32.582,192.501 29.332,192.759 28.083 C 193.056 26.649,193.493 24.157,193.497 23.875 C 193.501 23.588,192.951 23.613,191.048 23.988 C 190.151 24.164,188.442 24.470,187.250 24.666 C 186.058 24.863,184.464 25.135,183.707 25.271 C 182.950 25.407,181.646 25.620,180.809 25.745 C 179.141 25.994,179.057 26.057,178.911 27.167 C 178.857 27.579,178.670 28.592,178.495 29.417 C 178.320 30.242,178.017 31.742,177.822 32.750 C 177.627 33.758,177.301 35.371,177.097 36.333 L 176.726 38.083 172.863 38.128 C 169.109 38.172,168.704 38.120,169.250 37.667 C 169.387 37.553,169.500 37.398,169.500 37.323 C 169.500 37.248,169.987 36.462,170.583 35.577 C 171.179 34.692,171.667 33.935,171.667 33.894 C 171.667 33.853,171.810 33.617,171.986 33.368 C 172.752 32.284,174.500 29.489,174.500 29.348 C 174.500 29.264,174.562 29.169,174.638 29.139 C 174.810 29.070,176.667 26.222,176.667 26.027 C 176.667 25.949,176.817 25.749,177.000 25.583 C 177.183 25.417,177.333 25.207,177.333 25.115 C 177.333 25.023,177.508 24.716,177.721 24.432 C 177.934 24.149,178.157 23.804,178.218 23.667 C 178.278 23.529,178.851 22.629,179.491 21.667 C 180.130 20.704,180.959 19.429,181.333 18.833 C 181.707 18.237,182.536 16.962,183.176 16.000 C 183.816 15.037,184.389 14.140,184.451 14.006 C 184.512 13.872,184.886 13.290,185.281 12.713 C 185.677 12.136,186.000 11.624,186.000 11.575 C 186.000 11.526,186.140 11.283,186.312 11.035 C 186.935 10.131,188.167 8.175,188.167 8.089 C 188.167 7.879,174.370 7.998,174.266 8.208 M32.903 14.829 C 34.425 15.265,36.667 16.885,36.667 17.550 C 36.667 17.631,36.803 17.898,36.970 18.141 C 38.197 19.933,38.698 27.020,37.925 31.667 C 37.298 35.438,36.891 37.195,36.168 39.250 C 35.450 41.289,34.158 43.873,33.375 44.837 C 33.169 45.090,33.000 45.344,33.000 45.399 C 33.000 45.455,32.869 45.637,32.708 45.806 C 32.548 45.974,32.077 46.480,31.662 46.931 C 30.929 47.727,29.590 48.875,28.916 49.286 C 27.992 49.850,26.405 50.667,26.234 50.667 C 26.128 50.667,25.759 50.784,25.415 50.928 C 24.404 51.351,21.785 51.667,19.296 51.667 L 16.980 51.667 17.083 50.875 C 17.140 50.440,17.367 49.183,17.588 48.083 C 17.978 46.144,18.326 44.342,18.997 40.792 C 19.175 39.852,19.505 38.146,19.730 37.000 C 19.955 35.854,20.300 34.054,20.496 33.000 C 20.988 30.364,21.452 27.950,21.921 25.583 C 22.140 24.483,22.475 22.758,22.665 21.750 C 22.856 20.742,23.155 19.167,23.330 18.250 C 23.505 17.333,23.709 16.246,23.783 15.833 L 23.918 15.083 25.751 14.809 C 28.431 14.408,31.459 14.416,32.903 14.829 M104.917 19.324 C 98.440 19.958,90.653 24.874,88.271 29.833 C 88.205 29.971,87.971 30.383,87.752 30.750 C 82.783 39.058,81.985 52.058,86.043 58.583 C 89.294 63.809,96.951 65.110,102.458 61.372 C 102.940 61.045,103.333 60.715,103.333 60.639 C 103.333 60.563,103.426 60.500,103.539 60.500 C 104.433 60.500,107.977 55.528,109.537 52.084 L 109.991 51.083 109.995 54.181 C 110.000 57.097,110.028 57.371,110.473 58.848 C 111.209 61.287,112.765 63.963,113.321 63.742 C 113.465 63.685,113.996 63.485,114.500 63.298 C 115.004 63.112,115.488 62.893,115.575 62.813 C 115.662 62.732,115.838 62.667,115.966 62.667 C 116.095 62.667,116.436 62.558,116.725 62.425 C 117.014 62.292,117.662 62.023,118.167 61.827 C 118.671 61.631,119.458 61.320,119.917 61.136 C 120.375 60.952,121.162 60.649,121.667 60.462 C 122.171 60.275,122.658 60.066,122.750 59.997 C 122.842 59.928,123.165 59.819,123.470 59.754 C 124.170 59.604,124.286 59.302,123.868 58.714 C 120.628 54.150,120.000 48.527,121.759 39.833 C 122.238 37.463,122.537 35.919,123.837 29.083 C 124.012 28.167,124.345 26.479,124.579 25.333 C 124.812 24.188,125.021 22.875,125.043 22.417 L 125.083 21.583 122.417 21.458 C 119.210 21.306,118.207 21.160,117.000 20.670 C 113.928 19.422,109.246 18.900,104.917 19.324 M64.840 21.292 C 64.731 21.910,64.502 23.092,64.331 23.917 C 63.993 25.551,63.339 28.788,62.816 31.417 C 62.633 32.333,62.333 33.833,62.149 34.750 C 61.965 35.667,61.672 37.129,61.499 38.000 C 61.326 38.871,60.999 40.483,60.773 41.583 C 60.547 42.683,60.203 44.408,60.008 45.417 C 59.489 48.102,59.017 50.425,58.722 51.750 C 56.634 61.125,63.744 65.660,74.997 62.131 C 75.866 61.858,76.785 61.528,77.039 61.397 L 77.500 61.158 77.500 56.412 C 77.500 53.802,77.461 51.667,77.414 51.667 C 77.258 51.667,74.776 52.349,74.651 52.426 C 74.230 52.687,73.096 52.533,72.808 52.177 C 72.345 51.605,72.416 51.043,73.678 45.250 C 73.858 44.425,74.003 43.600,74.000 43.417 C 73.997 43.233,74.144 42.408,74.325 41.583 C 74.507 40.758,74.814 39.258,75.006 38.250 C 75.198 37.242,75.532 35.554,75.747 34.500 C 76.115 32.694,76.309 31.705,77.169 27.250 C 77.363 26.242,77.700 24.554,77.916 23.500 C 78.133 22.446,78.353 21.265,78.407 20.875 L 78.504 20.167 71.771 20.167 L 65.038 20.167 64.840 21.292 M109.736 29.495 C 110.104 29.635,110.148 29.729,110.067 30.203 C 109.716 32.251,108.194 37.924,107.372 40.250 C 106.260 43.394,105.982 44.120,105.292 45.667 C 100.510 56.396,96.252 55.166,98.082 43.583 C 98.541 40.680,99.066 38.827,100.395 35.417 C 100.819 34.330,101.983 32.531,102.918 31.520 C 104.540 29.765,107.856 28.780,109.736 29.495 M238.333 67.107 C 234.510 67.761,233.698 71.617,237.088 73.025 C 238.531 73.624,239.554 74.000,239.743 74.000 C 240.121 74.000,240.667 74.764,240.667 75.293 C 240.667 76.224,239.403 76.617,237.844 76.170 C 237.148 75.970,237.006 75.765,237.003 74.958 L 237.000 74.333 236.000 74.333 L 235.000 74.333 235.000 75.553 C 235.000 78.578,240.721 79.497,242.724 76.794 C 243.829 75.302,242.324 72.000,240.538 72.000 C 239.882 72.000,237.706 70.968,237.525 70.572 C 237.011 69.444,238.672 68.612,240.302 69.181 C 240.822 69.362,240.884 69.462,241.084 70.458 C 241.191 70.989,241.211 71.000,242.097 71.000 L 243.000 71.000 243.000 69.703 C 243.000 68.417,242.995 68.402,242.458 68.081 C 241.287 67.380,239.377 66.929,238.333 67.107 M273.167 67.233 C 269.160 68.396,269.220 72.077,273.267 73.383 C 275.568 74.125,276.173 74.623,275.933 75.577 C 275.592 76.938,272.475 76.527,272.260 75.093 L 272.144 74.317 271.197 74.367 L 270.250 74.417 270.201 75.427 C 270.045 78.669,276.582 79.558,278.125 76.505 C 279.262 74.254,277.798 72.468,273.917 71.373 C 272.024 70.838,272.450 69.000,274.467 69.000 C 275.703 69.000,276.116 69.260,276.336 70.178 L 276.533 71.000 277.433 71.000 L 278.333 71.000 278.333 69.776 C 278.333 68.341,278.232 68.204,276.737 67.603 C 275.463 67.092,274.130 66.954,273.167 67.233 M282.667 67.110 C 280.605 67.448,279.333 68.645,279.333 70.250 C 279.333 71.896,280.158 72.662,282.936 73.593 C 286.263 74.708,285.512 77.098,282.130 76.159 C 281.544 75.997,281.504 75.941,281.400 75.160 L 281.290 74.333 280.312 74.333 L 279.333 74.333 279.333 75.575 C 279.333 77.409,280.615 78.250,283.411 78.250 C 286.788 78.250,288.722 75.509,286.886 73.327 C 286.391 72.739,283.464 71.333,282.735 71.333 C 282.430 71.333,281.667 70.482,281.667 70.142 C 281.667 68.811,284.989 68.576,285.252 69.888 C 285.479 71.019,285.459 71.000,286.428 71.000 L 287.333 71.000 287.333 69.758 C 287.333 68.552,287.318 68.506,286.792 68.113 C 285.895 67.444,283.776 66.929,282.667 67.110 M314.833 67.230 C 312.401 67.948,311.244 69.516,311.044 72.368 C 310.696 77.320,315.558 80.079,319.708 77.286 L 320.167 76.977 320.167 74.822 L 320.167 72.667 318.241 72.667 L 316.316 72.667 316.366 73.542 L 316.417 74.417 317.125 74.468 L 317.833 74.519 317.833 75.333 L 317.833 76.146 317.083 76.259 C 314.261 76.682,312.648 74.125,313.756 70.984 C 314.569 68.679,318.167 68.147,318.167 70.331 L 318.167 71.000 319.167 71.000 L 320.167 71.000 320.167 69.781 C 320.167 68.615,320.145 68.546,319.657 68.186 C 318.479 67.315,316.125 66.848,314.833 67.230 M341.333 67.110 C 337.582 67.724,336.739 71.423,340.000 72.958 C 341.042 73.448,342.502 74.000,342.757 74.000 C 343.557 74.000,344.003 75.345,343.403 75.946 C 342.430 76.918,340.221 76.311,340.049 75.023 L 339.956 74.333 338.978 74.333 L 338.000 74.333 338.000 75.523 C 338.000 78.638,343.879 79.512,345.788 76.680 C 347.110 74.718,345.789 72.747,342.417 71.649 C 340.446 71.008,339.896 70.231,340.846 69.431 C 341.941 68.510,343.945 68.991,344.031 70.196 L 344.083 70.917 345.042 70.967 L 346.000 71.017 345.998 69.717 C 345.996 68.435,345.988 68.412,345.456 68.068 C 344.452 67.420,342.381 66.939,341.333 67.110 M213.625 67.259 C 213.556 67.330,213.500 67.706,213.500 68.093 C 213.500 68.818,213.670 69.000,214.347 69.000 C 214.652 69.000,214.667 69.163,214.667 72.662 L 214.667 76.324 214.125 76.463 C 213.622 76.593,213.580 76.658,213.533 77.385 L 213.482 78.167 216.711 78.167 C 220.253 78.167,221.178 77.999,222.038 77.200 C 223.237 76.086,223.042 73.285,221.722 72.684 L 221.282 72.484 221.642 72.232 C 223.286 71.080,222.533 68.181,220.417 67.515 C 219.663 67.278,213.819 67.058,213.625 67.259 M223.449 67.273 C 223.075 67.647,223.339 68.843,223.816 68.938 L 224.299 69.035 224.367 72.226 C 224.472 77.145,225.291 78.249,228.833 78.249 C 232.351 78.249,233.186 77.124,233.301 72.225 L 233.376 69.033 233.864 68.936 C 234.331 68.842,234.350 68.804,234.301 68.044 L 234.250 67.250 232.000 67.250 L 229.750 67.250 229.698 67.983 C 229.641 68.770,229.808 68.993,230.458 68.997 C 231.229 69.003,230.952 75.206,230.148 75.933 C 229.564 76.462,227.970 76.379,227.379 75.788 L 226.917 75.326 226.862 72.163 L 226.807 69.000 227.195 68.997 C 227.859 68.993,228.026 68.774,227.969 67.983 L 227.917 67.250 225.741 67.204 C 224.544 67.178,223.513 67.210,223.449 67.273 M243.782 67.273 C 243.719 67.337,243.667 67.706,243.667 68.093 C 243.667 68.818,243.837 69.000,244.514 69.000 C 244.819 69.000,244.833 69.163,244.833 72.662 L 244.833 76.324 244.292 76.463 C 243.788 76.593,243.746 76.658,243.699 77.385 L 243.648 78.167 246.074 78.167 L 248.500 78.167 248.500 77.411 C 248.500 76.638,248.480 76.615,247.625 76.427 L 247.167 76.327 247.167 72.685 L 247.167 69.043 247.842 68.935 L 248.518 68.827 248.467 68.038 L 248.417 67.250 246.157 67.204 C 244.915 67.178,243.846 67.210,243.782 67.273 M249.000 68.004 C 249.000 68.803,249.024 68.846,249.503 68.942 L 250.006 69.043 249.961 72.722 L 249.917 76.402 249.500 76.499 C 249.138 76.584,249.077 76.701,249.033 77.382 L 248.982 78.167 251.241 78.167 L 253.500 78.167 253.500 77.344 C 253.500 76.571,253.473 76.519,253.042 76.469 L 252.583 76.417 252.542 73.917 L 252.500 71.417 252.908 72.083 C 253.132 72.450,253.472 73.012,253.662 73.333 C 253.853 73.654,254.157 74.160,254.338 74.458 C 254.519 74.756,254.798 75.221,254.958 75.490 C 255.119 75.760,255.544 76.472,255.903 77.074 L 256.557 78.167 257.695 78.167 L 258.833 78.167 258.833 73.583 C 258.833 69.176,258.846 69.000,259.153 69.000 C 259.855 69.000,260.000 68.825,260.000 67.977 L 260.000 67.157 257.708 67.204 L 255.417 67.250 255.366 68.032 C 255.316 68.810,255.320 68.816,255.908 68.926 L 256.500 69.037 256.498 71.560 C 256.496 73.643,256.459 74.022,256.289 73.731 C 256.176 73.537,255.914 73.087,255.707 72.731 C 255.216 71.888,254.991 71.525,254.580 70.917 C 254.394 70.642,254.026 70.004,253.763 69.500 C 253.500 68.996,253.183 68.465,253.059 68.320 C 252.935 68.175,252.833 67.981,252.833 67.888 C 252.833 67.368,252.212 67.167,250.612 67.167 L 249.000 67.167 249.000 68.004 M260.500 68.001 C 260.500 68.803,260.523 68.846,261.003 68.942 L 261.506 69.043 261.461 72.722 L 261.417 76.402 261.000 76.499 C 260.638 76.584,260.577 76.701,260.533 77.382 L 260.482 78.167 264.824 78.167 L 269.167 78.167 269.167 76.583 L 269.167 75.000 268.167 75.000 L 267.167 75.000 267.167 75.583 L 267.167 76.167 265.583 76.167 L 264.000 76.167 264.000 74.833 L 264.000 73.500 265.750 73.500 L 267.500 73.500 267.500 72.500 L 267.500 71.500 265.750 71.500 L 264.000 71.500 264.000 70.333 L 264.000 69.167 265.583 69.167 L 267.167 69.167 267.167 69.842 L 267.167 70.517 268.125 70.467 L 269.083 70.417 269.083 68.833 L 269.083 67.250 264.792 67.206 L 260.500 67.161 260.500 68.001 M291.792 67.260 C 291.723 67.331,291.667 67.706,291.667 68.093 C 291.667 68.839,291.832 69.000,292.597 69.000 L 293.000 69.000 293.000 72.650 L 293.000 76.300 292.375 76.447 C 291.771 76.589,291.748 76.621,291.699 77.390 L 291.648 78.186 295.115 78.134 C 299.919 78.064,300.842 77.601,300.963 75.203 C 301.029 73.901,300.681 73.063,299.917 72.687 C 299.529 72.497,299.494 72.433,299.712 72.311 C 301.481 71.321,300.761 68.248,298.590 67.526 C 297.839 67.276,291.998 67.048,291.792 67.260 M301.700 68.042 C 301.747 68.859,301.780 68.920,302.211 68.970 L 302.673 69.023 302.628 72.720 L 302.583 76.417 302.125 76.469 C 301.694 76.519,301.667 76.571,301.667 77.344 L 301.667 78.167 305.917 78.167 L 310.167 78.167 310.167 76.583 L 310.167 75.000 309.250 75.000 L 308.333 75.000 308.333 75.583 L 308.333 76.167 306.750 76.167 L 305.167 76.167 305.167 74.833 L 305.167 73.500 306.917 73.500 L 308.667 73.500 308.667 72.500 L 308.667 71.500 306.917 71.500 L 305.167 71.500 305.167 70.333 L 305.167 69.167 306.665 69.167 L 308.163 69.167 308.269 69.833 L 308.376 70.500 309.271 70.500 L 310.167 70.500 310.167 68.833 L 310.167 67.167 305.908 67.167 L 301.649 67.167 301.700 68.042 M321.116 67.273 C 321.052 67.337,321.000 67.706,321.000 68.093 C 321.000 68.818,321.170 69.000,321.847 69.000 C 322.152 69.000,322.167 69.163,322.167 72.662 L 322.167 76.324 321.625 76.463 C 321.122 76.593,321.080 76.658,321.033 77.385 L 320.982 78.167 323.333 78.167 L 325.685 78.167 325.634 77.376 C 325.587 76.642,325.547 76.579,325.083 76.499 L 324.583 76.414 324.538 72.707 L 324.494 69.000 324.872 68.997 C 325.525 68.993,325.692 68.771,325.636 67.983 L 325.583 67.250 323.407 67.204 C 322.211 67.178,321.179 67.210,321.116 67.273 M326.278 67.278 C 326.217 67.339,326.167 67.706,326.167 68.093 C 326.167 68.818,326.337 69.000,327.014 69.000 C 327.319 69.000,327.333 69.163,327.333 72.662 L 327.333 76.324 326.792 76.463 C 326.288 76.593,326.246 76.658,326.199 77.385 L 326.148 78.167 328.500 78.167 L 330.852 78.167 330.801 77.385 C 330.754 76.658,330.712 76.593,330.208 76.463 L 329.667 76.324 329.667 73.912 C 329.667 71.156,329.650 71.191,330.374 72.432 C 330.917 73.364,331.213 73.861,331.829 74.875 C 332.010 75.173,332.313 75.679,332.501 76.000 C 332.690 76.321,333.053 76.921,333.308 77.333 L 333.771 78.083 334.969 78.132 L 336.167 78.181 336.167 73.591 L 336.167 69.000 336.542 68.997 C 337.192 68.993,337.359 68.770,337.302 67.983 L 337.250 67.250 335.013 67.203 C 332.566 67.152,332.507 67.174,332.503 68.119 C 332.500 68.688,332.849 69.000,333.489 69.000 C 333.822 69.000,333.833 69.083,333.830 71.542 L 333.826 74.083 333.500 73.667 C 333.321 73.438,333.172 73.207,333.170 73.154 C 333.164 72.990,330.002 67.778,329.718 67.464 C 329.444 67.161,326.551 67.004,326.278 67.278 M350.533 68.042 C 350.580 68.859,350.614 68.920,351.045 68.970 L 351.506 69.023 351.461 72.720 L 351.417 76.417 350.958 76.469 C 350.527 76.519,350.500 76.571,350.500 77.344 L 350.500 78.167 352.750 78.167 L 355.000 78.167 355.000 77.344 C 355.000 76.571,354.973 76.519,354.542 76.469 C 354.091 76.417,354.083 76.396,354.035 75.125 L 353.986 73.833 355.993 73.833 L 358.000 73.833 358.000 75.079 L 358.000 76.324 357.458 76.463 C 356.955 76.593,356.913 76.658,356.866 77.385 L 356.815 78.167 359.167 78.167 L 361.518 78.167 361.467 77.382 C 361.423 76.701,361.362 76.584,361.000 76.499 L 360.583 76.402 360.539 72.722 L 360.494 69.043 361.006 68.940 C 361.502 68.841,361.517 68.812,361.468 68.044 L 361.417 67.250 359.167 67.250 L 356.917 67.250 356.864 67.983 C 356.808 68.770,356.975 68.993,357.625 68.997 C 357.984 69.000,358.000 69.059,358.000 70.417 L 358.000 71.833 356.000 71.833 L 354.000 71.833 354.000 70.438 L 354.000 69.042 354.500 68.942 C 354.976 68.846,355.000 68.801,355.000 68.004 L 355.000 67.167 352.741 67.167 L 350.483 67.167 350.533 68.042 M362.114 67.275 C 362.051 67.338,362.000 67.706,362.000 68.093 C 362.000 68.818,362.170 69.000,362.847 69.000 C 363.152 69.000,363.167 69.163,363.167 72.662 L 363.167 76.324 362.625 76.463 C 362.122 76.593,362.080 76.658,362.033 77.385 L 361.982 78.167 366.324 78.167 L 370.667 78.167 370.667 76.583 L 370.667 75.000 369.769 75.000 C 368.874 75.000,368.870 75.002,368.761 75.583 L 368.652 76.167 367.076 76.167 L 365.500 76.167 365.500 74.833 L 365.500 73.500 367.333 73.500 L 369.167 73.500 369.167 72.500 L 369.167 71.500 367.333 71.500 L 365.500 71.500 365.500 70.333 L 365.500 69.167 367.083 69.167 C 368.647 69.167,368.667 69.172,368.667 69.570 C 368.667 70.377,368.813 70.500,369.774 70.500 L 370.679 70.500 370.631 68.875 L 370.583 67.250 366.406 67.206 C 364.108 67.181,362.177 67.212,362.114 67.275 M371.625 67.261 C 371.154 67.742,371.506 68.830,372.167 68.936 L 372.833 69.043 372.833 72.685 L 372.833 76.327 372.375 76.427 C 371.520 76.615,371.500 76.638,371.500 77.411 L 371.500 78.167 373.926 78.167 L 376.352 78.167 376.301 77.376 C 376.254 76.642,376.214 76.579,375.750 76.500 C 375.250 76.414,375.250 76.414,375.201 75.124 L 375.153 73.833 375.868 73.834 C 377.597 73.837,378.167 74.352,378.167 75.917 C 378.167 77.484,378.845 78.167,380.401 78.167 L 381.333 78.167 381.333 77.333 C 381.333 76.633,381.284 76.500,381.024 76.500 C 380.764 76.500,380.698 76.322,380.610 75.378 C 380.505 74.253,380.152 73.525,379.475 73.037 C 379.199 72.838,379.211 72.794,379.649 72.370 C 381.252 70.819,380.524 68.287,378.257 67.523 C 377.511 67.272,371.834 67.048,371.625 67.261 M381.947 67.275 C 381.564 67.658,381.841 68.843,382.336 68.942 L 382.840 69.043 382.795 72.722 L 382.750 76.402 382.333 76.499 C 381.972 76.584,381.910 76.701,381.866 77.382 L 381.815 78.167 386.158 78.167 L 390.500 78.167 390.500 76.583 L 390.500 75.000 389.500 75.000 L 388.500 75.000 388.500 75.583 L 388.500 76.167 386.917 76.167 L 385.333 76.167 385.333 74.833 L 385.333 73.500 387.167 73.500 L 389.000 73.500 389.000 72.500 L 389.000 71.500 387.167 71.500 L 385.333 71.500 385.333 70.333 L 385.333 69.167 386.907 69.167 L 388.480 69.167 388.532 69.792 L 388.583 70.417 389.548 70.467 L 390.512 70.517 390.464 68.884 L 390.417 67.250 386.239 67.206 C 383.941 67.181,382.010 67.212,381.947 67.275 M219.386 69.358 C 219.875 69.616,219.995 69.824,219.995 70.417 C 219.995 71.342,219.479 71.667,218.011 71.667 L 217.000 71.667 217.000 70.417 L 217.000 69.167 218.011 69.167 C 218.567 69.167,219.186 69.253,219.386 69.358 M297.564 69.355 C 299.145 70.075,298.248 71.667,296.261 71.667 L 295.167 71.667 295.167 70.417 L 295.167 69.167 296.159 69.167 C 296.705 69.167,297.337 69.251,297.564 69.355 M377.559 69.575 C 378.644 70.581,377.955 71.861,376.272 71.968 L 375.167 72.039 375.167 70.603 L 375.167 69.167 376.142 69.167 C 376.947 69.167,377.195 69.238,377.559 69.575 M220.099 73.848 C 221.274 74.952,220.377 76.167,218.388 76.167 L 217.000 76.167 217.000 74.726 L 217.000 73.286 218.349 73.378 C 219.441 73.453,219.773 73.542,220.099 73.848 M298.251 73.848 C 299.457 75.074,298.664 76.167,296.569 76.167 L 295.167 76.167 295.167 74.729 L 295.167 73.291 296.511 73.368 C 297.653 73.434,297.915 73.507,298.251 73.848 " stroke="none" fill="#0d3c5c" fill-rule="evenodd"></path><path id="path2" d="" stroke="none" fill="#e82830" fill-rule="evenodd"></path><path id="path3" d="" stroke="none" fill="#e82830" fill-rule="evenodd"></path><path id="path4" d="" stroke="none" fill="#e82830" fill-rule="evenodd"></path></g></svg>